<svg width="42" height="42" viewBox="0 0 42 42" fill="none" xmlns="http://www.w3.org/2000/svg">
<path d="M13.2227 16.3057C14.7622 16.3058 16.2385 16.9173 17.3271 18.0059C18.4159 19.0946 19.0273 20.5716 19.0273 22.1113V35.4443C19.0273 36.9841 18.4159 38.4611 17.3271 39.5498C16.2385 40.6383 14.7621 41.2499 13.2227 41.25H6.55566C5.01594 41.25 3.53895 40.6386 2.4502 39.5498C1.36144 38.4611 0.75 36.9841 0.75 35.4443V22.1113C0.75 20.5716 1.36148 19.0946 2.4502 18.0059C3.53895 16.9171 5.01594 16.3057 6.55566 16.3057H13.2227ZM35.4443 29.6387C36.984 29.6387 38.4611 30.2502 39.5498 31.3389C40.6385 32.4276 41.25 33.9046 41.25 35.4443C41.25 36.9841 40.6386 38.4611 39.5498 39.5498C38.4611 40.6386 36.9841 41.25 35.4443 41.25H28.7773C27.2379 41.2499 25.7615 40.6383 24.6729 39.5498C23.5841 38.4611 22.9727 36.9841 22.9727 35.4443C22.9727 33.9046 23.5841 32.4276 24.6729 31.3389C25.7615 30.2504 27.2379 29.6388 28.7773 29.6387H35.4443ZM6.55566 19.0273C5.73791 19.0273 4.95324 19.3524 4.375 19.9307C3.7968 20.5089 3.47266 21.2936 3.47266 22.1113V35.4443C3.47266 36.2621 3.79676 37.0468 4.375 37.625C4.95324 38.2032 5.73791 38.5273 6.55566 38.5273H13.2227C14.0401 38.5272 14.8242 38.203 15.4023 37.625C15.9806 37.0468 16.3057 36.2621 16.3057 35.4443V22.1113C16.3057 21.2936 15.9806 20.5089 15.4023 19.9307C14.8242 19.3526 14.0402 19.0275 13.2227 19.0273H6.55566ZM28.7773 32.3613C27.9598 32.3614 27.1758 32.6865 26.5977 33.2646C26.0195 33.8428 25.6944 34.6267 25.6943 35.4443C25.6943 36.2621 26.0194 37.0468 26.5977 37.625C27.1758 38.203 27.9599 38.5272 28.7773 38.5273H35.4443C36.2621 38.5273 37.0468 38.2032 37.625 37.625C38.2032 37.0468 38.5273 36.2621 38.5273 35.4443C38.5273 34.6268 38.203 33.8428 37.625 33.2646C37.0468 32.6864 36.2621 32.3613 35.4443 32.3613H28.7773ZM35.4443 0.75C36.9841 0.75 38.4611 1.36144 39.5498 2.4502C40.6386 3.53895 41.25 5.01594 41.25 6.55566V19.8887C41.25 21.4284 40.6385 22.9054 39.5498 23.9941C38.4611 25.0829 36.9841 25.6943 35.4443 25.6943H28.7773C27.2378 25.6942 25.7615 25.0827 24.6729 23.9941C23.5841 22.9054 22.9727 21.4284 22.9727 19.8887V6.55566C22.9727 5.01593 23.5841 3.53895 24.6729 2.4502C25.7615 1.36168 27.2379 0.750115 28.7773 0.75H35.4443ZM28.7773 3.47266C27.9599 3.47277 27.1758 3.797 26.5977 4.375C26.0194 4.95324 25.6943 5.73791 25.6943 6.55566V19.8887C25.6943 20.7064 26.0194 21.4911 26.5977 22.0693C27.1758 22.6474 27.9598 22.9725 28.7773 22.9727H35.4443C36.2621 22.9727 37.0468 22.6476 37.625 22.0693C38.2032 21.4911 38.5273 20.7064 38.5273 19.8887V6.55566C38.5273 5.73791 38.2032 4.95324 37.625 4.375C37.0468 3.79676 36.2621 3.47266 35.4443 3.47266H28.7773ZM13.2227 0.75C14.7621 0.750115 16.2385 1.36168 17.3271 2.4502C18.4159 3.53895 19.0273 5.01593 19.0273 6.55566C19.0273 8.09535 18.4159 9.57241 17.3271 10.6611C16.2385 11.7496 14.7621 12.3612 13.2227 12.3613H6.55566C5.01599 12.3613 3.53894 11.7498 2.4502 10.6611C1.36147 9.57241 0.750029 8.09535 0.75 6.55566C0.75 5.01593 1.36144 3.53895 2.4502 2.4502C3.53895 1.36144 5.01593 0.75 6.55566 0.75H13.2227ZM6.55566 3.47266C5.73791 3.47266 4.95324 3.79676 4.375 4.375C3.79676 4.95324 3.47266 5.73791 3.47266 6.55566C3.47269 7.3732 3.79703 8.15718 4.375 8.73535C4.95324 9.31359 5.73791 9.63867 6.55566 9.63867H13.2227C14.0403 9.63856 14.8242 9.31349 15.4023 8.73535C15.9805 8.15716 16.3056 7.3733 16.3057 6.55566C16.3057 5.73791 15.9806 4.95324 15.4023 4.375C14.8242 3.797 14.0401 3.47277 13.2227 3.47266H6.55566Z" fill="black" stroke="black" stroke-width="0.5"/>
</svg>
