<svg width="20" height="20" viewBox="0 0 20 20" fill="none" xmlns="http://www.w3.org/2000/svg">
<path d="M2.66667 9.04171H11.2917C11.5417 9.04171 11.75 8.83337 11.75 8.58337V2.66671C11.75 2.41671 11.5417 2.20837 11.2917 2.20837H2.66667C2.41667 2.20837 2.20833 2.41671 2.20833 2.66671V8.62504C2.25 8.87504 2.41667 9.04171 2.66667 9.04171ZM5 4.20837C5 3.87504 5.20833 3.54171 5.5 3.37504C5.79167 3.20837 6.16667 3.20837 6.45833 3.41671L8.58333 4.83337C8.83333 5.00004 9 5.29171 9 5.62504C9 5.95837 8.83333 6.25004 8.58333 6.41671L6.45833 7.83337C6.29167 7.95837 6.125 8.00004 5.91667 8.00004C5.75 8.00004 5.625 7.95837 5.45833 7.87504C5.16667 7.70837 4.95833 7.37504 4.95833 7.04171V4.20837H5ZM0 14.9584C0 15.75 0.666667 16.4167 1.45833 16.4167H18.125C18.9167 16.4167 19.5833 15.75 19.5833 14.9584V14.75H0V14.9584Z" fill="black"/>
<path d="M18.125 0H1.45833C0.666667 0 0 0.666667 0 1.45833V13.875H19.5833V1.45833C19.5833 0.666667 18.9167 0 18.125 0ZM1.33333 2.66667C1.33333 1.91667 1.91667 1.33333 2.66667 1.33333H11.2917C12.0417 1.33333 12.625 1.91667 12.625 2.66667V8.625C12.625 9.375 12.0417 9.95833 11.2917 9.95833H2.66667C1.91667 9.95833 1.33333 9.375 1.33333 8.625V2.66667ZM17.7917 12.5417H1.79167C1.54167 12.5417 1.33333 12.3333 1.33333 12.0833C1.33333 11.8333 1.54167 11.625 1.79167 11.625H17.7917C18.0417 11.625 18.25 11.8333 18.25 12.0833C18.25 12.3333 18.0417 12.5417 17.7917 12.5417ZM17.7917 9.08333H14.4167C14.1667 9.08333 13.9583 8.875 13.9583 8.625C13.9583 8.375 14.1667 8.16667 14.4167 8.16667H17.7917C18.0417 8.16667 18.25 8.375 18.25 8.625C18.25 8.875 18.0417 9.08333 17.7917 9.08333ZM17.7917 5.66667H14.4167C14.1667 5.66667 13.9583 5.45833 13.9583 5.20833C13.9583 4.95833 14.1667 4.75 14.4167 4.75H17.7917C18.0417 4.75 18.25 4.95833 18.25 5.20833C18.25 5.45833 18.0417 5.66667 17.7917 5.66667ZM17.7917 2.20833H14.4167C14.1667 2.20833 13.9583 2 13.9583 1.75C13.9583 1.5 14.1667 1.29167 14.4167 1.29167H17.7917C18.0417 1.29167 18.25 1.5 18.25 1.75C18.25 2 18.0417 2.20833 17.7917 2.20833Z" fill="black"/>
<path d="M5.95817 7.12496L8.08317 5.70829C8.08317 5.70829 8.12484 5.70829 8.12484 5.66663C8.12484 5.62496 8.12484 5.62496 8.08317 5.62496L5.95817 4.16663C5.95817 4.16663 5.95817 4.16663 5.9165 4.16663C5.9165 4.16663 5.9165 4.16663 5.87484 4.16663C5.83317 4.16663 5.83317 4.20829 5.83317 4.20829V7.08329C5.83317 7.08329 5.83317 7.12496 5.87484 7.12496C5.9165 7.12496 5.95817 7.12496 5.95817 7.12496ZM13.9998 19.5416C13.9998 19.7916 13.7915 20 13.5415 20H5.99984C5.74984 20 5.5415 19.7916 5.5415 19.5416C5.5415 19.2916 5.74984 19.0833 5.99984 19.0833H7.62484V17.25H11.9582V19.0833H13.5832C13.8332 19.125 13.9998 19.2916 13.9998 19.5416Z" fill="black"/>
</svg>
