<svg width="145" height="50" viewBox="0 0 145 50" fill="none" xmlns="http://www.w3.org/2000/svg">
<rect width="145" height="50" rx="25" fill="white"/>
<circle cx="25" cy="25" r="20" fill="#254AA5"/>
<path d="M54.66 35V15.4H61.744C62.92 15.4 63.8907 15.5773 64.656 15.932C65.44 16.268 66.0653 16.716 66.532 17.276C66.9987 17.836 67.3253 18.452 67.512 19.124C67.7173 19.7773 67.82 20.4213 67.82 21.056C67.82 22.1387 67.5027 23.184 66.868 24.192C66.2333 25.2 65.2533 25.9467 63.928 26.432L68.912 35H66L61.408 26.824H57.18V35H54.66ZM57.124 24.584H61.744C62.7707 24.584 63.62 24.248 64.292 23.576C64.964 22.8853 65.3 22.0453 65.3 21.056C65.3 20.4587 65.1507 19.908 64.852 19.404C64.5533 18.8813 64.1333 18.4613 63.592 18.144C63.0693 17.808 62.4627 17.64 61.772 17.64H57.124V24.584ZM70.4376 35L77.4096 15.4H79.7896L86.7616 35H84.4096L82.4776 29.54H74.7216L72.7896 35H70.4376ZM75.5336 27.3H81.6656L78.6136 18.676L75.5336 27.3ZM89.2094 35V32.928H92.5414V17.528H89.2094V15.4H98.3374V17.528H95.0054V32.872H98.3374V35H89.2094ZM109.274 35.336C107.65 35.336 106.306 35.0373 105.242 34.44C104.196 33.824 103.394 33.0307 102.834 32.06C102.292 31.0893 101.956 30.072 101.826 29.008H104.542C104.747 30.2027 105.26 31.1733 106.082 31.92C106.903 32.6667 107.967 33.0587 109.274 33.096C110.095 33.096 110.842 32.9653 111.514 32.704C112.204 32.424 112.755 32.0413 113.166 31.556C113.576 31.052 113.772 30.464 113.754 29.792C113.754 29.0267 113.548 28.4293 113.138 28C112.727 27.5707 112.186 27.2347 111.514 26.992C110.86 26.7493 110.132 26.544 109.33 26.376C108.527 26.1893 107.724 25.984 106.922 25.76C106.119 25.536 105.382 25.228 104.71 24.836C104.056 24.444 103.524 23.912 103.114 23.24C102.703 22.5493 102.498 21.6533 102.498 20.552C102.498 19.6 102.731 18.704 103.198 17.864C103.683 17.024 104.42 16.352 105.41 15.848C106.399 15.3253 107.659 15.064 109.19 15.064C110.254 15.064 111.196 15.232 112.018 15.568C112.858 15.904 113.567 16.352 114.146 16.912C114.743 17.4533 115.191 18.0507 115.49 18.704C115.807 19.3573 115.984 20.0013 116.022 20.636H113.418C113.324 20.076 113.11 19.544 112.774 19.04C112.438 18.536 111.952 18.1253 111.318 17.808C110.702 17.472 109.927 17.304 108.994 17.304C108.303 17.304 107.65 17.4253 107.034 17.668C106.418 17.9107 105.914 18.2653 105.522 18.732C105.148 19.1987 104.962 19.7587 104.962 20.412C104.962 21.1587 105.167 21.7467 105.578 22.176C105.988 22.6053 106.52 22.9413 107.174 23.184C107.846 23.4267 108.583 23.6413 109.386 23.828C110.188 24.0147 110.991 24.22 111.794 24.444C112.596 24.668 113.324 24.976 113.978 25.368C114.65 25.76 115.191 26.292 115.602 26.964C116.012 27.6173 116.218 28.476 116.218 29.54C116.218 30.8093 115.919 31.8827 115.322 32.76C114.724 33.6187 113.903 34.2627 112.858 34.692C111.831 35.1213 110.636 35.336 109.274 35.336ZM120.532 35V15.4H132.012V17.64H122.996V23.856H130.304V26.04H122.996V32.76H132.012V35H120.532Z" fill="black"/>
<path d="M18.04 36V13.6H26.136C27.48 13.6 28.5893 13.8027 29.464 14.208C30.36 14.592 31.0747 15.104 31.608 15.744C32.1413 16.384 32.5147 17.088 32.728 17.856C32.9627 18.6027 33.08 19.3387 33.08 20.064C33.08 21.3013 32.7173 22.496 31.992 23.648C31.2667 24.8 30.1467 25.6533 28.632 26.208L34.328 36H31L25.752 26.656H20.92V36H18.04ZM20.856 24.096H26.136C27.3093 24.096 28.28 23.712 29.048 22.944C29.816 22.1547 30.2 21.1947 30.2 20.064C30.2 19.3813 30.0293 18.752 29.688 18.176C29.3467 17.5787 28.8667 17.0987 28.248 16.736C27.6507 16.352 26.9573 16.16 26.168 16.16H20.856V24.096Z" fill="white"/>
</svg>
