<svg width="34" height="30" viewBox="0 0 34 30" fill="none" xmlns="http://www.w3.org/2000/svg">
<path d="M3.33301 0.75H11.2656L14.376 5.41602C14.5151 5.62466 14.7492 5.75 15 5.75H30C30.6851 5.75 31.3427 6.02237 31.8271 6.50684C32.3113 6.9912 32.5829 7.64814 32.583 8.33301V26.667C32.5829 27.3519 32.3113 28.0088 31.8271 28.4932C31.3427 28.9776 30.6851 29.25 30 29.25H3.33301C2.64798 29.2499 1.99123 28.9776 1.50684 28.4932C1.02244 28.0088 0.750086 27.352 0.75 26.667V3.33301C0.750086 2.64798 1.02244 1.99123 1.50684 1.50684C1.99123 1.02244 2.64798 0.750086 3.33301 0.75Z" stroke="black" stroke-width="1.5" stroke-linecap="round" stroke-linejoin="round"/>
</svg>
