<svg width="24" height="20" viewBox="0 0 24 20" fill="none" xmlns="http://www.w3.org/2000/svg">
<path d="M24 6.81818V16.8182C24 17.6894 23.6827 18.4375 23.0481 19.0625C22.4135 19.6875 21.6538 20 20.7692 20H3.23077C2.34615 20 1.58654 19.6875 0.951923 19.0625C0.317308 18.4375 0 17.6894 0 16.8182V3.18182C0 2.31061 0.317308 1.5625 0.951923 0.9375C1.58654 0.3125 2.34615 0 3.23077 0H7.84615C8.73077 0 9.49039 0.3125 10.125 0.9375C10.7596 1.5625 11.0769 2.31061 11.0769 3.18182V3.63636H20.7692C21.6538 3.63636 22.4135 3.94886 23.0481 4.57386C23.6827 5.19886 24 5.94697 24 6.81818Z" fill="black"/>
</svg>
