<svg width="100" height="40" viewBox="0 0 100 40" fill="none" xmlns="http://www.w3.org/2000/svg">
<rect width="100" height="40" rx="20" fill="#254AA5"/>
<path d="M38.7727 17.2727C38.7045 16.697 38.428 16.25 37.9432 15.9318C37.4583 15.6136 36.8636 15.4545 36.1591 15.4545C35.6439 15.4545 35.1932 15.5379 34.8068 15.7045C34.4242 15.8712 34.125 16.1004 33.9091 16.392C33.697 16.6837 33.5909 17.0152 33.5909 17.3864C33.5909 17.697 33.6648 17.964 33.8125 18.1875C33.964 18.4072 34.1572 18.5909 34.392 18.7386C34.6269 18.8826 34.8731 19.0019 35.1307 19.0966C35.3883 19.1875 35.625 19.2614 35.8409 19.3182L37.0227 19.6364C37.3258 19.7159 37.6629 19.8258 38.0341 19.9659C38.4091 20.1061 38.767 20.2973 39.108 20.5398C39.4527 20.7784 39.7367 21.0852 39.9602 21.4602C40.1837 21.8352 40.2955 22.2955 40.2955 22.8409C40.2955 23.4697 40.1307 24.0379 39.8011 24.5455C39.4754 25.053 38.9981 25.4564 38.3693 25.7557C37.7443 26.0549 36.9848 26.2045 36.0909 26.2045C35.2576 26.2045 34.536 26.0701 33.9261 25.8011C33.3201 25.5322 32.8428 25.1572 32.4943 24.6761C32.1496 24.1951 31.9545 23.6364 31.9091 23H33.3636C33.4015 23.4394 33.5492 23.803 33.8068 24.0909C34.0682 24.375 34.3977 24.5871 34.7955 24.7273C35.197 24.8636 35.6288 24.9318 36.0909 24.9318C36.6288 24.9318 37.1117 24.8447 37.5398 24.6705C37.9678 24.4924 38.3068 24.2462 38.5568 23.9318C38.8068 23.6136 38.9318 23.2424 38.9318 22.8182C38.9318 22.4318 38.8239 22.1174 38.608 21.875C38.392 21.6326 38.108 21.4356 37.7557 21.2841C37.4034 21.1326 37.0227 21 36.6136 20.8864L35.1818 20.4773C34.2727 20.2159 33.553 19.8428 33.0227 19.358C32.4924 18.8731 32.2273 18.2386 32.2273 17.4545C32.2273 16.803 32.4034 16.2348 32.7557 15.75C33.1117 15.2614 33.589 14.8826 34.1875 14.6136C34.7898 14.3409 35.4621 14.2045 36.2045 14.2045C36.9545 14.2045 37.6212 14.339 38.2045 14.608C38.7879 14.8731 39.25 15.2367 39.5909 15.6989C39.9356 16.161 40.1174 16.6856 40.1364 17.2727H38.7727ZM46.0895 26.1818C45.2486 26.1818 44.5232 25.9962 43.9134 25.625C43.3073 25.25 42.8395 24.7273 42.5099 24.0568C42.1842 23.3826 42.0213 22.5985 42.0213 21.7045C42.0213 20.8106 42.1842 20.0227 42.5099 19.3409C42.8395 18.6553 43.2978 18.1212 43.8849 17.7386C44.4759 17.3523 45.1652 17.1591 45.9531 17.1591C46.4077 17.1591 46.8565 17.2348 47.2997 17.3864C47.7429 17.5379 48.1463 17.7841 48.5099 18.125C48.8736 18.4621 49.1634 18.9091 49.3793 19.4659C49.5952 20.0227 49.7031 20.7083 49.7031 21.5227V22.0909H42.9759V20.9318H48.3395C48.3395 20.4394 48.241 20 48.044 19.6136C47.8509 19.2273 47.5743 18.9223 47.2145 18.6989C46.8584 18.4754 46.438 18.3636 45.9531 18.3636C45.419 18.3636 44.9569 18.4962 44.5668 18.7614C44.1804 19.0227 43.883 19.3636 43.6747 19.7841C43.4664 20.2045 43.3622 20.6553 43.3622 21.1364V21.9091C43.3622 22.5682 43.4759 23.1269 43.7031 23.5852C43.9342 24.0398 44.2543 24.3864 44.6634 24.625C45.0724 24.8598 45.5478 24.9773 46.0895 24.9773C46.4418 24.9773 46.7599 24.928 47.044 24.8295C47.3319 24.7273 47.58 24.5758 47.7884 24.375C47.9967 24.1705 48.1577 23.9167 48.2713 23.6136L49.5668 23.9773C49.4304 24.4167 49.2012 24.803 48.8793 25.1364C48.5573 25.4659 48.1596 25.7235 47.6861 25.9091C47.2126 26.0909 46.6804 26.1818 46.0895 26.1818ZM53.0838 20.75V26H51.7429V17.2727H53.0384V18.6364H53.152C53.3565 18.1932 53.6671 17.8371 54.0838 17.5682C54.5005 17.2955 55.0384 17.1591 55.6974 17.1591C56.2884 17.1591 56.8054 17.2803 57.2486 17.5227C57.6918 17.7614 58.0365 18.125 58.2827 18.6136C58.5289 19.0985 58.652 19.7121 58.652 20.4545V26H57.3111V20.5455C57.3111 19.8598 57.133 19.3258 56.777 18.9432C56.4209 18.5568 55.9323 18.3636 55.3111 18.3636C54.883 18.3636 54.5005 18.4564 54.1634 18.642C53.83 18.8277 53.5668 19.0985 53.3736 19.4545C53.1804 19.8106 53.0838 20.2424 53.0838 20.75ZM64.3977 26.1818C63.6705 26.1818 63.0284 25.9981 62.4716 25.6307C61.9148 25.2595 61.4792 24.7367 61.1648 24.0625C60.8504 23.3845 60.6932 22.5833 60.6932 21.6591C60.6932 20.7424 60.8504 19.947 61.1648 19.2727C61.4792 18.5985 61.9167 18.0777 62.4773 17.7102C63.0379 17.3428 63.6856 17.1591 64.4205 17.1591C64.9886 17.1591 65.4375 17.2538 65.767 17.4432C66.1004 17.6288 66.3542 17.8409 66.5284 18.0795C66.7064 18.3144 66.8447 18.5076 66.9432 18.6591H67.0568V14.3636H68.3977V26H67.1023V24.6591H66.9432C66.8447 24.8182 66.7045 25.0189 66.5227 25.2614C66.3409 25.5 66.0814 25.714 65.7443 25.9034C65.4072 26.089 64.9583 26.1818 64.3977 26.1818ZM64.5795 24.9773C65.1174 24.9773 65.572 24.8371 65.9432 24.5568C66.3144 24.2727 66.5966 23.8807 66.7898 23.3807C66.983 22.8769 67.0795 22.2955 67.0795 21.6364C67.0795 20.9848 66.9848 20.4148 66.7955 19.9261C66.6061 19.4337 66.3258 19.0511 65.9545 18.7784C65.5833 18.5019 65.125 18.3636 64.5795 18.3636C64.0114 18.3636 63.5379 18.5095 63.1591 18.8011C62.7841 19.089 62.5019 19.4811 62.3125 19.9773C62.1269 20.4697 62.0341 21.0227 62.0341 21.6364C62.0341 22.2576 62.1288 22.822 62.3182 23.3295C62.5114 23.8333 62.7955 24.2348 63.1705 24.5341C63.5492 24.8295 64.0189 24.9773 64.5795 24.9773Z" fill="white"/>
</svg>
