<svg width="29" height="30" viewBox="0 0 29 30" fill="none" xmlns="http://www.w3.org/2000/svg">
<path d="M26.2819 30H2.71815C1.99803 29.9974 1.30814 29.7075 0.798942 29.1934C0.289743 28.6793 0.00254909 27.9829 0 27.2559L0 5.50537C0.00254909 4.77837 0.289743 4.08188 0.798942 3.56781C1.30814 3.05374 1.99803 2.7638 2.71815 2.76123H5.2259V6.1377C5.22814 6.58918 5.33078 7.03439 5.52624 7.44047C5.72171 7.84655 6.00501 8.20313 6.35524 8.48389C6.98166 8.99586 7.7632 9.2752 8.56917 9.2752C9.37514 9.2752 10.1567 8.99586 10.7831 8.48389C11.1333 8.20313 11.4166 7.84655 11.6121 7.44047C11.8076 7.03439 11.9102 6.58918 11.9124 6.1377V2.76123H16.9763V6.1377C16.9786 6.58918 17.0812 7.03439 17.2767 7.44047C17.4721 7.84655 17.7554 8.20313 18.1057 8.48389C18.7321 8.99586 19.5136 9.2752 20.3196 9.2752C21.1256 9.2752 21.9071 8.99586 22.5335 8.48389C22.8838 8.20313 23.1671 7.84655 23.3625 7.44047C23.558 7.03439 23.6606 6.58918 23.6629 6.1377V2.76123H26.2819C27.0016 2.76508 27.6907 3.05543 28.1997 3.56922C28.7086 4.08302 28.9962 4.77877 29 5.50537V27.2559C28.9981 27.9831 28.7111 28.6799 28.2018 29.1941C27.6924 29.7083 27.0022 29.9981 26.2819 30ZM20.212 13.8599H24.1054C24.2349 13.8604 24.3591 13.9116 24.452 14.0026C24.5449 14.0937 24.5992 14.2175 24.6036 14.3481V17.6196C24.5992 17.7503 24.5449 17.8741 24.452 17.9651C24.3591 18.0562 24.2349 18.1074 24.1054 18.1079H20.212C20.0849 18.1042 19.9639 18.0516 19.874 17.9608C19.7841 17.87 19.732 17.748 19.7283 17.6196V14.3604C19.7314 14.2318 19.7833 14.1094 19.8734 14.0185C19.9634 13.9276 20.0847 13.8752 20.212 13.8721V13.8599ZM12.592 13.8599H16.4878C16.6149 13.8636 16.7359 13.9162 16.8258 14.007C16.9157 14.0977 16.9678 14.2198 16.9715 14.3481V17.6196C16.9673 17.7478 16.9149 17.8695 16.8251 17.9602C16.7353 18.0508 16.6148 18.1036 16.4878 18.1079H12.592C12.4649 18.1042 12.344 18.0516 12.254 17.9608C12.1641 17.87 12.112 17.748 12.1083 17.6196V14.3604C12.112 14.232 12.1641 14.11 12.254 14.0192C12.344 13.9284 12.4649 13.8758 12.592 13.8721V13.8599ZM4.89218 13.8599H8.78803C8.91514 13.8636 9.03605 13.9162 9.12598 14.007C9.2159 14.0977 9.26803 14.2198 9.27168 14.3481V17.6196C9.26746 17.7478 9.21514 17.8695 9.12534 17.9602C9.03554 18.0508 8.91496 18.1036 8.78803 18.1079H4.89218C4.76295 18.1073 4.639 18.0561 4.5465 17.965C4.45401 17.8739 4.40019 17.75 4.39643 17.6196V14.3604C4.39959 14.2297 4.45321 14.1056 4.54584 14.0143C4.63847 13.9231 4.76277 13.872 4.89218 13.8721V13.8599ZM20.212 20.8154H24.1054C24.2349 20.816 24.3591 20.8672 24.452 20.9582C24.5449 21.0492 24.5992 21.1731 24.6036 21.3037V24.5752C24.6029 24.7082 24.5502 24.8355 24.4568 24.9292C24.3635 25.023 24.2371 25.0757 24.1054 25.0757H20.212C20.0828 25.0719 19.9601 25.0176 19.8699 24.9242C19.7797 24.8308 19.7289 24.7057 19.7283 24.5752V21.3159C19.732 21.1876 19.7841 21.0655 19.874 20.9747C19.9639 20.884 20.0849 20.8313 20.212 20.8276V20.8154ZM12.592 20.8154H16.4878C16.6149 20.8191 16.7359 20.8717 16.8258 20.9625C16.9157 21.0533 16.9678 21.1754 16.9715 21.3037V24.5752C16.9709 24.7057 16.9201 24.8308 16.8299 24.9242C16.7397 25.0176 16.617 25.0719 16.4878 25.0757H12.592C12.4628 25.0719 12.3401 25.0176 12.2499 24.9242C12.1597 24.8308 12.1089 24.7057 12.1083 24.5752V21.3159C12.1125 21.1878 12.1649 21.066 12.2547 20.9754C12.3445 20.8847 12.465 20.8319 12.592 20.8276V20.8154ZM4.89218 20.8154H8.78803C8.91514 20.8191 9.03605 20.8717 9.12598 20.9625C9.2159 21.0533 9.26803 21.1754 9.27168 21.3037V24.5752C9.27111 24.7057 9.22034 24.8308 9.1301 24.9242C9.03986 25.0176 8.9172 25.0719 8.78803 25.0757H4.89218C4.76089 25.075 4.63517 25.0221 4.54233 24.9284C4.4495 24.8347 4.39707 24.7077 4.39643 24.5752V21.3159C4.40019 21.1855 4.45401 21.0617 4.5465 20.9706C4.639 20.8795 4.76295 20.8282 4.89218 20.8276V20.8154ZM19.0077 1.08643C19.0077 0.488281 19.5881 0 20.3135 0C21.039 0 21.6267 0.488281 21.6267 1.08643V6.1377C21.6267 6.73828 21.0414 7.22412 20.3135 7.22412C19.5856 7.22412 19.0028 6.73584 19.0028 6.1377V1.08643H19.0077ZM7.25484 1.08643C7.25484 0.488281 7.8449 0 8.57038 0C9.29586 0 9.88109 0.488281 9.88109 1.08643V6.1377C9.88109 6.73828 9.29586 7.22412 8.57038 7.22412C7.8449 7.22412 7.25484 6.73828 7.25484 6.1377V1.08643ZM0.87058 10.708V26.9629C0.872493 27.5347 1.09833 28.0825 1.49883 28.4868C1.89932 28.8912 2.44196 29.1192 3.00834 29.1211H25.982C26.5488 29.1198 27.092 28.8921 27.4931 28.4877C27.8941 28.0833 28.1203 27.5351 28.1222 26.9629V10.708H0.87058Z" fill="black"/>
</svg>
