<svg width="40" height="40" viewBox="0 0 40 40" fill="none" xmlns="http://www.w3.org/2000/svg">
<path d="M13.9781 13.2764C13.8974 11.5982 14.4845 9.95625 15.611 8.70965C16.7375 7.46304 18.3117 6.71317 19.9895 6.62399C21.6673 6.71317 23.2416 7.46304 24.368 8.70965C25.4945 9.95625 26.0816 11.5982 26.0009 13.2764C26.0788 14.9525 25.4904 16.5914 24.3641 17.8351C23.2378 19.0788 21.6651 19.8264 19.9895 19.9146C18.3139 19.8264 16.7413 19.0788 15.615 17.8351C14.4887 16.5914 13.9002 14.9525 13.9781 13.2764ZM39.9895 20C39.9955 23.9703 38.8095 27.851 36.5849 31.1396C36.5267 31.2401 36.46 31.3354 36.3855 31.4245C34.5476 34.071 32.0963 36.2333 29.2411 37.7267C26.3859 39.22 23.2116 40 19.9895 40C16.7674 40 13.5931 39.22 10.7379 37.7267C7.88273 36.2333 5.43146 34.071 3.59353 31.4245C3.51906 31.3354 3.45234 31.2401 3.3941 31.1396C1.65265 28.5457 0.543305 25.5797 0.155019 22.4797C-0.233267 19.3796 0.110317 16.2317 1.15822 13.2884C2.20611 10.3451 3.92917 7.68832 6.18918 5.53113C8.44919 3.37394 11.1833 1.77638 14.1721 0.866566C17.161 -0.0432433 20.3215 -0.23998 23.4001 0.292133C26.4788 0.824246 29.3899 2.0704 31.9 3.93066C34.4101 5.79091 36.4493 8.2135 37.8541 11.0041C39.259 13.7947 39.9903 16.8757 39.9895 20ZM2.1263 20C2.12094 23.035 2.89075 26.0211 4.36276 28.6752C7.45392 24.6154 13.3798 22.0798 19.9895 22.0798C26.5992 22.0798 32.5251 24.6154 35.6163 28.6752C36.94 26.2902 37.7001 23.6338 37.8383 20.9096C37.9765 18.1854 37.4892 15.4657 36.4136 12.959C35.338 10.4522 33.7028 8.22507 31.6333 6.44813C29.5637 4.6712 27.1148 3.39169 24.4743 2.70768C21.8337 2.02367 19.0716 1.95332 16.3996 2.50202C13.7276 3.05072 11.2168 4.20391 9.05947 5.87319C6.90216 7.54246 5.15568 9.68351 3.9539 12.1322C2.75212 14.5809 2.12694 17.2723 2.1263 20Z" fill="black"/>
</svg>
