<svg width="30" height="32" viewBox="0 0 30 32" fill="none" xmlns="http://www.w3.org/2000/svg">
<path d="M22.5353 1.32292H7.46441C4.1092 1.32292 1.36454 3.98412 1.36454 7.23699V17.6742C1.36454 20.9266 4.10974 23.5883 7.46441 23.5883H12.2035C11.5255 26.1888 10.7044 28.5256 8.19583 30.6823C12.9924 29.493 16.6952 27.0886 19.4127 23.5883H20.2323C23.5867 23.5883 28.6357 20.9271 28.6357 17.6742V7.23699C28.6352 3.98412 25.8905 1.32292 22.5353 1.32292ZM21.7921 10.6951C20.5696 10.6951 19.5787 11.6563 19.5787 12.8414C19.5787 14.0266 20.5696 14.9878 21.7921 14.9878C23.0151 14.9878 24.006 14.0266 24.006 12.8414C24.006 11.6563 23.0151 10.6951 21.7921 10.6951ZM8.20765 10.6951C6.98494 10.6951 5.99377 11.6563 5.99377 12.8414C5.99377 14.0266 6.98494 14.9878 8.20765 14.9878C9.4301 14.9878 10.4215 14.0266 10.4215 12.8414C10.4215 11.6563 9.4301 10.6951 8.20765 10.6951ZM15 10.6951C13.7776 10.6951 12.7861 11.6563 12.7861 12.8414C12.7861 14.0266 13.7776 14.9878 15 14.9878C16.2227 14.9878 17.2136 14.0266 17.2136 12.8414C17.2136 11.6563 16.2227 10.6951 15 10.6951ZM7.46441 0H22.5356H22.5372V0.00520834C24.5942 0.00572917 26.46 0.817449 27.8081 2.12474L27.8055 2.12735C29.1558 3.43803 29.9941 5.24636 29.9946 7.23621H30V7.23699H29.9946V17.6742H30V17.6753H29.9946C29.9936 19.8029 28.4689 21.6568 26.4382 22.9516C24.5469 24.1571 22.1587 24.9058 20.2323 24.906V24.9115H20.2317V24.906H20.077C18.7168 26.549 17.1381 27.9513 15.3296 29.1026C13.3303 30.3756 11.0684 31.3347 8.53106 31.9638L8.52999 31.9597C8.0524 32.0769 7.52619 31.9375 7.17726 31.5555C6.6798 31.0105 6.73245 30.1774 7.29465 29.6951C8.40078 28.7443 9.13436 27.7547 9.6654 26.7175C9.96114 26.1396 10.1989 25.5368 10.4054 24.9107H7.46414H7.46226V24.9052C5.40578 24.9047 3.54001 24.093 2.19159 22.7857C0.842899 21.4787 0.00564081 19.6693 0.0053722 17.6748H0V17.674H0.0053722V7.23699H0V7.23517H0.0053722C0.00564081 5.28178 0.812009 3.50521 2.11611 2.20417C2.14002 2.17709 2.16473 2.15052 2.19105 2.125C3.53975 0.817449 5.40578 0.00520834 7.46333 0.00494792V0H7.46441Z" fill="black"/>
</svg>
