<svg width="100" height="40" viewBox="0 0 100 40" fill="none" xmlns="http://www.w3.org/2000/svg">
<rect x="1" y="1" width="98" height="38" rx="11" stroke="#E6EEF9" stroke-width="2"/>
<path d="M29 26H25.4091V14.3636H29.1591C30.2879 14.3636 31.2538 14.5966 32.0568 15.0625C32.8598 15.5246 33.4754 16.1894 33.9034 17.0568C34.3314 17.9205 34.5455 18.9545 34.5455 20.1591C34.5455 21.3712 34.3295 22.4148 33.8977 23.2898C33.4659 24.161 32.8371 24.8314 32.0114 25.3011C31.1856 25.767 30.1818 26 29 26ZM26.8182 24.75H28.9091C29.8712 24.75 30.6686 24.5644 31.3011 24.1932C31.9337 23.822 32.4053 23.2936 32.7159 22.608C33.0265 21.9223 33.1818 21.1061 33.1818 20.1591C33.1818 19.2197 33.0284 18.411 32.7216 17.733C32.4148 17.0511 31.9564 16.5284 31.3466 16.1648C30.7367 15.7973 29.9773 15.6136 29.0682 15.6136H26.8182V24.75ZM40.3864 26.1818C39.5455 26.1818 38.8201 25.9962 38.2102 25.625C37.6042 25.25 37.1364 24.7273 36.8068 24.0568C36.4811 23.3826 36.3182 22.5985 36.3182 21.7045C36.3182 20.8106 36.4811 20.0227 36.8068 19.3409C37.1364 18.6553 37.5947 18.1212 38.1818 17.7386C38.7727 17.3523 39.4621 17.1591 40.25 17.1591C40.7045 17.1591 41.1534 17.2348 41.5966 17.3864C42.0398 17.5379 42.4432 17.7841 42.8068 18.125C43.1705 18.4621 43.4602 18.9091 43.6761 19.4659C43.892 20.0227 44 20.7083 44 21.5227V22.0909H37.2727V20.9318H42.6364C42.6364 20.4394 42.5379 20 42.3409 19.6136C42.1477 19.2273 41.8712 18.9223 41.5114 18.6989C41.1553 18.4754 40.7348 18.3636 40.25 18.3636C39.7159 18.3636 39.2538 18.4962 38.8636 18.7614C38.4773 19.0227 38.1799 19.3636 37.9716 19.7841C37.7633 20.2045 37.6591 20.6553 37.6591 21.1364V21.9091C37.6591 22.5682 37.7727 23.1269 38 23.5852C38.2311 24.0398 38.5511 24.3864 38.9602 24.625C39.3693 24.8598 39.8447 24.9773 40.3864 24.9773C40.7386 24.9773 41.0568 24.928 41.3409 24.8295C41.6288 24.7273 41.8769 24.5758 42.0852 24.375C42.2936 24.1705 42.4545 23.9167 42.5682 23.6136L43.8636 23.9773C43.7273 24.4167 43.4981 24.803 43.1761 25.1364C42.8542 25.4659 42.4564 25.7235 41.983 25.9091C41.5095 26.0909 40.9773 26.1818 40.3864 26.1818ZM49.8352 17.2727V18.4091H45.3125V17.2727H49.8352ZM46.6307 15.1818H47.9716V23.5C47.9716 23.8788 48.0265 24.1629 48.1364 24.3523C48.25 24.5379 48.3939 24.6629 48.5682 24.7273C48.7462 24.7879 48.9337 24.8182 49.1307 24.8182C49.2784 24.8182 49.3996 24.8106 49.4943 24.7955C49.589 24.7765 49.6648 24.7614 49.7216 24.75L49.9943 25.9545C49.9034 25.9886 49.7765 26.0227 49.6136 26.0568C49.4508 26.0947 49.2443 26.1136 48.9943 26.1136C48.6155 26.1136 48.2443 26.0322 47.8807 25.8693C47.5208 25.7064 47.2216 25.4583 46.983 25.125C46.7481 24.7917 46.6307 24.3712 46.6307 23.8636V15.1818ZM54.4205 26.2045C53.8674 26.2045 53.3655 26.1004 52.9148 25.892C52.464 25.6799 52.1061 25.375 51.8409 24.9773C51.5758 24.5758 51.4432 24.0909 51.4432 23.5227C51.4432 23.0227 51.5417 22.6174 51.7386 22.3068C51.9356 21.9924 52.1989 21.7462 52.5284 21.5682C52.858 21.3902 53.2216 21.2576 53.6193 21.1705C54.0208 21.0795 54.4242 21.0076 54.8295 20.9545C55.3598 20.8864 55.7898 20.8352 56.1193 20.8011C56.4527 20.7633 56.6951 20.7008 56.8466 20.6136C57.0019 20.5265 57.0795 20.375 57.0795 20.1591V20.1136C57.0795 19.553 56.9261 19.1174 56.6193 18.8068C56.3163 18.4962 55.8561 18.3409 55.2386 18.3409C54.5985 18.3409 54.0966 18.4811 53.733 18.7614C53.3693 19.0417 53.1136 19.3409 52.9659 19.6591L51.6932 19.2045C51.9205 18.6742 52.2235 18.2614 52.6023 17.9659C52.9848 17.6667 53.4015 17.4583 53.8523 17.3409C54.3068 17.2197 54.7538 17.1591 55.1932 17.1591C55.4735 17.1591 55.7955 17.1932 56.1591 17.2614C56.5265 17.3258 56.8807 17.4602 57.2216 17.6648C57.5663 17.8693 57.8523 18.178 58.0795 18.5909C58.3068 19.0038 58.4205 19.5568 58.4205 20.25V26H57.0795V24.8182H57.0114C56.9205 25.0076 56.7689 25.2102 56.5568 25.4261C56.3447 25.642 56.0625 25.8258 55.7102 25.9773C55.358 26.1288 54.928 26.2045 54.4205 26.2045ZM54.625 25C55.1553 25 55.6023 24.8958 55.9659 24.6875C56.3333 24.4792 56.6098 24.2102 56.7955 23.8807C56.9848 23.5511 57.0795 23.2045 57.0795 22.8409V21.6136C57.0227 21.6818 56.8977 21.7443 56.7045 21.8011C56.5152 21.8542 56.2955 21.9015 56.0455 21.9432C55.7992 21.9811 55.5587 22.0152 55.3239 22.0455C55.0928 22.072 54.9053 22.0947 54.7614 22.1136C54.4129 22.1591 54.0871 22.233 53.7841 22.3352C53.4848 22.4337 53.2424 22.5833 53.0568 22.7841C52.875 22.9811 52.7841 23.25 52.7841 23.5909C52.7841 24.0568 52.9564 24.4091 53.3011 24.6477C53.6496 24.8826 54.0909 25 54.625 25ZM60.8679 26V17.2727H62.2088V26H60.8679ZM61.5497 15.8182C61.2884 15.8182 61.063 15.7292 60.8736 15.5511C60.688 15.3731 60.5952 15.1591 60.5952 14.9091C60.5952 14.6591 60.688 14.4451 60.8736 14.267C61.063 14.089 61.2884 14 61.5497 14C61.8111 14 62.0346 14.089 62.2202 14.267C62.4096 14.4451 62.5043 14.6591 62.5043 14.9091C62.5043 15.1591 62.4096 15.3731 62.2202 15.5511C62.0346 15.7292 61.8111 15.8182 61.5497 15.8182ZM66.0057 14.3636V26H64.6648V14.3636H66.0057ZM74.6435 19.2273L73.4389 19.5682C73.3632 19.3674 73.2514 19.1723 73.1037 18.983C72.9598 18.7898 72.7628 18.6307 72.5128 18.5057C72.2628 18.3807 71.9427 18.3182 71.5526 18.3182C71.0185 18.3182 70.5734 18.4413 70.2173 18.6875C69.8651 18.9299 69.6889 19.2386 69.6889 19.6136C69.6889 19.947 69.8101 20.2102 70.0526 20.4034C70.295 20.5966 70.6738 20.7576 71.1889 20.8864L72.4844 21.2045C73.2647 21.3939 73.8461 21.6837 74.2287 22.0739C74.6113 22.4602 74.8026 22.9583 74.8026 23.5682C74.8026 24.0682 74.6586 24.5152 74.3707 24.9091C74.0866 25.303 73.6889 25.6136 73.1776 25.8409C72.6662 26.0682 72.0715 26.1818 71.3935 26.1818C70.5033 26.1818 69.7666 25.9886 69.1832 25.6023C68.5999 25.2159 68.2306 24.6515 68.0753 23.9091L69.348 23.5909C69.4692 24.0606 69.6984 24.4129 70.0355 24.6477C70.3764 24.8826 70.8215 25 71.3707 25C71.9957 25 72.492 24.8674 72.8594 24.6023C73.2306 24.3333 73.4162 24.0114 73.4162 23.6364C73.4162 23.3333 73.3101 23.0795 73.098 22.875C72.8859 22.6667 72.5601 22.5114 72.1207 22.4091L70.6662 22.0682C69.867 21.8788 69.2798 21.5852 68.9048 21.1875C68.5336 20.786 68.348 20.2841 68.348 19.6818C68.348 19.1894 68.4863 18.7538 68.7628 18.375C69.0431 17.9962 69.4238 17.6989 69.9048 17.483C70.3897 17.267 70.9389 17.1591 71.5526 17.1591C72.4162 17.1591 73.0942 17.3485 73.5866 17.7273C74.0829 18.1061 74.4351 18.6061 74.6435 19.2273Z" fill="black"/>
</svg>
