<svg width="100" height="40" viewBox="0 0 100 40" fill="none" xmlns="http://www.w3.org/2000/svg">
<rect width="100" height="40" rx="12" fill="#254AA5"/>
<path d="M39.8636 14.3636H41.2727V22.6818C41.2727 23.4242 41.1364 24.0549 40.8636 24.5739C40.5909 25.0928 40.2064 25.4867 39.7102 25.7557C39.214 26.0246 38.6288 26.1591 37.9545 26.1591C37.3182 26.1591 36.7519 26.0436 36.2557 25.8125C35.7595 25.5777 35.3693 25.2443 35.0852 24.8125C34.8011 24.3807 34.6591 23.8674 34.6591 23.2727H36.0455C36.0455 23.6023 36.1269 23.8902 36.2898 24.1364C36.4564 24.3788 36.6837 24.5682 36.9716 24.7045C37.2595 24.8409 37.5871 24.9091 37.9545 24.9091C38.3598 24.9091 38.7045 24.8239 38.9886 24.6534C39.2727 24.483 39.4886 24.233 39.6364 23.9034C39.7879 23.5701 39.8636 23.1629 39.8636 22.6818V14.3636ZM47.4602 26.1818C46.6723 26.1818 45.9811 25.9943 45.3864 25.6193C44.7955 25.2443 44.3333 24.7197 44 24.0455C43.6705 23.3712 43.5057 22.5833 43.5057 21.6818C43.5057 20.7727 43.6705 19.9792 44 19.3011C44.3333 18.6231 44.7955 18.0966 45.3864 17.7216C45.9811 17.3466 46.6723 17.1591 47.4602 17.1591C48.2481 17.1591 48.9375 17.3466 49.5284 17.7216C50.1231 18.0966 50.5852 18.6231 50.9148 19.3011C51.2481 19.9792 51.4148 20.7727 51.4148 21.6818C51.4148 22.5833 51.2481 23.3712 50.9148 24.0455C50.5852 24.7197 50.1231 25.2443 49.5284 25.6193C48.9375 25.9943 48.2481 26.1818 47.4602 26.1818ZM47.4602 24.9773C48.0587 24.9773 48.5511 24.8239 48.9375 24.517C49.3239 24.2102 49.6098 23.8068 49.7955 23.3068C49.9811 22.8068 50.0739 22.2652 50.0739 21.6818C50.0739 21.0985 49.9811 20.5549 49.7955 20.0511C49.6098 19.5473 49.3239 19.1402 48.9375 18.8295C48.5511 18.5189 48.0587 18.3636 47.4602 18.3636C46.8617 18.3636 46.3693 18.5189 45.983 18.8295C45.5966 19.1402 45.3106 19.5473 45.125 20.0511C44.9394 20.5549 44.8466 21.0985 44.8466 21.6818C44.8466 22.2652 44.9394 22.8068 45.125 23.3068C45.3106 23.8068 45.5966 24.2102 45.983 24.517C46.3693 24.8239 46.8617 24.9773 47.4602 24.9773ZM53.4616 26V17.2727H54.8026V26H53.4616ZM54.1435 15.8182C53.8821 15.8182 53.6567 15.7292 53.4673 15.5511C53.2817 15.3731 53.1889 15.1591 53.1889 14.9091C53.1889 14.6591 53.2817 14.4451 53.4673 14.267C53.6567 14.089 53.8821 14 54.1435 14C54.4048 14 54.6283 14.089 54.8139 14.267C55.0033 14.4451 55.098 14.6591 55.098 14.9091C55.098 15.1591 55.0033 15.3731 54.8139 15.5511C54.6283 15.7292 54.4048 15.8182 54.1435 15.8182ZM58.5994 20.75V26H57.2585V17.2727H58.554V18.6364H58.6676C58.8722 18.1932 59.1828 17.8371 59.5994 17.5682C60.0161 17.2955 60.554 17.1591 61.2131 17.1591C61.804 17.1591 62.321 17.2803 62.7642 17.5227C63.2074 17.7614 63.5521 18.125 63.7983 18.6136C64.0445 19.0985 64.1676 19.7121 64.1676 20.4545V26H62.8267V20.5455C62.8267 19.8598 62.6487 19.3258 62.2926 18.9432C61.9366 18.5568 61.4479 18.3636 60.8267 18.3636C60.3987 18.3636 60.0161 18.4564 59.679 18.642C59.3456 18.8277 59.0824 19.0985 58.8892 19.4545C58.696 19.8106 58.5994 20.2424 58.5994 20.75Z" fill="white"/>
</svg>
