<svg width="30" height="30" viewBox="0 0 30 30" fill="none" xmlns="http://www.w3.org/2000/svg">
<path d="M18.027 1.82486C19.7909 2.37118 21.3802 3.37203 22.6356 4.72705C23.9941 6.17757 24.906 7.98926 25.2621 9.94513V10.0135C25.3134 10.3091 25.35 10.5901 25.372 10.8539C25.3988 11.1617 25.4135 11.472 25.4135 11.7822V14.2569C25.4135 14.9434 25.4135 15.642 25.4623 16.3431C25.5265 17.601 25.8897 18.8255 26.5217 19.9147C27.2328 21.0302 28.1824 21.9739 29.302 22.6776C29.6196 22.8855 29.8498 23.2028 29.9489 23.5693C30.0231 23.8554 30.0164 24.1565 29.9294 24.439C29.8437 24.7213 29.6824 24.9747 29.4631 25.1719C29.1764 25.4234 28.8069 25.56 28.4257 25.5554H20.0921V25.5749C19.0815 31.4868 10.9114 31.4697 9.92524 25.5554H1.58429C1.18233 25.5645 0.792662 25.4164 0.498042 25.1425C0.288469 24.9421 0.136809 24.6888 0.0590492 24.4094C-0.0187103 24.1299 -0.0196884 23.8346 0.056218 23.5546C0.161564 23.1763 0.406797 22.8523 0.742143 22.6483C2.12376 21.7127 3.0904 20.694 3.70065 19.5312C4.31091 18.3683 4.59162 16.9807 4.59162 15.3098V11.7822C4.59162 11.4988 4.60627 11.191 4.63556 10.8612C4.66485 10.5314 4.70635 10.2456 4.76005 9.94269C5.11143 8.04529 5.97957 6.28185 7.26873 4.84684C8.5579 3.41183 10.218 2.36099 12.066 1.81021C13.1913 -0.6034 16.9017 -0.608286 18.027 1.82486ZM21.42 5.86301C20.2792 4.63016 18.8123 3.74661 17.1897 3.31505C17.0519 3.27714 16.926 3.20445 16.8243 3.10393C16.7226 3.00341 16.6484 2.87842 16.6087 2.74096C16.1913 1.30696 13.9236 1.27521 13.5038 2.72874C13.4629 2.87039 13.3854 2.99873 13.2791 3.10082C13.1728 3.2029 13.0415 3.27511 12.8984 3.31016C11.2664 3.72226 9.78645 4.59349 8.63362 5.82082C7.48078 7.04815 6.70329 8.58023 6.39309 10.2358C6.34753 10.4932 6.31335 10.7497 6.29057 11.0054C6.2686 11.2497 6.25884 11.4939 6.25884 11.7822V15.3098C6.25884 17.2421 5.92198 18.8667 5.17259 20.3007C4.45493 21.6736 3.376 22.8389 1.86745 23.8967H28.1474C26.9217 23.0813 25.884 22.0136 25.1035 20.7648C24.3377 19.4546 23.8942 17.9809 23.8097 16.4653C23.756 15.7617 23.7585 14.9995 23.7609 14.2667V11.7822C23.7609 11.5135 23.7609 11.2521 23.7292 10.9956C23.6974 10.7391 23.6779 10.507 23.6413 10.2994L23.6267 10.2334C23.3275 8.59545 22.565 7.0778 21.4297 5.86057L21.42 5.86301Z" fill="black"/>
</svg>
